<svg width="582" height="147" viewBox="0 0 582 147" fill="none" xmlns="http://www.w3.org/2000/svg">
<path d="M0 99.7819V28.7266H73.6616V45.3739H19.7037V56.6412H50.2192C68.9125 56.6412 79.5222 64.0513 79.5222 76.5367V77.9578C79.5222 91.4583 68.6093 99.7819 50.2192 99.7819H0ZM19.7037 83.9467H48.6025C55.3725 83.9467 58.808 81.8151 58.808 77.8563V77.1457C58.808 73.1869 55.2714 71.1568 48.6025 71.1568H19.7037V83.9467Z" fill="#F7931E"/>
<path d="M119.474 99.7819V28.7266H139.379V47.607L139.278 76.0291H139.379L182.323 28.7266H204.149V99.7819H184.243V80.8L184.344 52.3779H184.243L141.299 99.7819H119.474Z" fill="#F7931E"/>
<path d="M249.407 99.7819V28.7266H269.312V47.607L269.211 76.0291H269.312L312.256 28.7266H334.082V99.7819H314.176V80.8L314.277 52.3779H314.176L271.232 99.7819H249.407ZM264.26 15.8352V0L291.845 8.72965L319.229 0V15.4291L291.744 24.0573L264.26 15.8352Z" fill="#F7931E"/>
<path d="M374.995 63.3407C374.995 41.2121 392.779 27.407 420.97 27.407C449.97 27.407 465.733 37.3548 467.148 56.9457H445.827C443.907 48.9266 436.026 45.3739 421.374 45.3739C404.803 45.3739 395.709 51.4643 395.709 63.4422V65.0663C395.709 77.0442 404.803 83.1347 421.374 83.1347C436.026 83.1347 443.907 79.5819 445.827 71.5628H467.148C465.632 90.7477 449.465 101 421.374 101C392.072 101 374.995 88.007 374.995 65.1678V63.3407Z" fill="#F7931E"/>
<path d="M518.746 73.796C508.642 70.1417 502.478 62.7317 502.478 53.1899V51.3628C502.478 36.8472 514.199 28.7266 535.014 28.7266H582V99.7819H562.195V76.4352H540.269L521.777 99.7819H497.729L518.746 73.796ZM523.293 53.6975C523.293 58.2653 527.133 60.803 534.105 60.803H562.195V45.8814H534.105C527.133 45.8814 523.293 48.2161 523.293 52.7839V53.6975Z" fill="#F7931E"/>
<path d="M0.121094 118.889H6.30895L14.4692 134.242H20.7731L21.0824 133.43C22.2813 130.375 23.751 127.204 25.2979 124.264L28.1211 118.889H33.9996L30.2482 126.392C28.8173 129.369 27.3477 132.502 26.0714 135.596L21.7012 145.961H16.0548L18.7233 139.309H10.9885L0.121094 118.889Z" fill="#F7931E"/>
<path d="M78.7978 118.889V123.955H66.2287V145.961H60.7757V123.955H48.2066V118.889H78.7978Z" fill="#F7931E"/>
<path d="M84.956 145.961V118.889H101.238C108.895 118.889 113.227 122.099 113.227 127.513V128.132C113.227 133.508 108.818 136.795 101.238 136.795H90.3317V145.961H84.956ZM90.3317 132.27H101.315C105.608 132.27 107.58 130.916 107.58 128.132V127.706C107.58 124.922 105.608 123.568 101.315 123.568H90.3317V132.27Z" fill="#F7931E"/>
<path d="M119.891 118.889H145.3V123.607H125.228V130.143L139.422 130.104V134.745H125.228V141.242H146.808V145.961H119.891V118.889Z" fill="#F7931E"/>
<path d="M180.279 118.889V123.955H167.71V145.961H162.257V123.955H149.688V118.889H180.279Z" fill="#F7931E"/>
<path d="M186.438 118.889H191.891V145.961H186.438V118.889Z" fill="#F7931E"/>
<path d="M201.28 145.961V118.889H206.733V128.635L206.695 139.463H206.733L225.993 118.889H231.949V145.961H226.496V136.176L226.535 125.347H226.496L207.236 145.961H201.28ZM206.811 113.088V108.524L216.634 112.276L226.38 108.447V112.933L216.595 116.8L206.811 113.088Z" fill="#F7931E"/>
<path d="M272.67 118.889H278.123V140.894H292.433V118.889H297.886V145.961H252.947V118.889H258.4V140.894H272.67V118.889Z" fill="#F7931E"/>
<path d="M334.636 118.889V123.955H322.067V145.961H316.614V123.955H304.045V118.889H334.636Z" fill="#F7931E"/>
<path d="M337.197 118.889H343.385L351.546 134.242H357.849L358.159 133.43C359.358 130.375 360.827 127.204 362.374 124.264L365.197 118.889H371.076L367.325 126.392C365.894 129.369 364.424 132.502 363.148 135.596L358.778 145.961H353.131L355.8 139.309H348.065L337.197 118.889Z" fill="#F7931E"/>
<path d="M376.976 145.961V118.889H393.257C400.915 118.889 405.246 122.099 405.246 127.513V128.132C405.246 133.508 400.837 136.795 393.257 136.795H382.351V145.961H376.976ZM382.351 132.27H393.335C397.628 132.27 399.6 130.916 399.6 128.132V127.706C399.6 124.922 397.628 123.568 393.335 123.568H382.351V132.27Z" fill="#F7931E"/>
<path d="M411.911 145.961V118.889H418.099L431.132 133.624L444.126 118.889H450.198V145.961H444.822V136.408L444.861 125.579H444.822L431.093 141.126H431.016L417.286 125.579H417.248L417.286 136.408V145.961H411.911Z" fill="#F7931E"/>
<path d="M475.12 146.425C464.252 146.425 457.561 141.242 457.561 132.734V132.115C457.561 123.878 464.562 118.425 475.12 118.425C485.987 118.425 492.678 123.607 492.678 132.115V132.734C492.678 140.972 485.678 146.425 475.12 146.425ZM463.169 132.734C463.169 138.303 467.385 141.358 475.12 141.358C482.816 141.358 487.031 138.303 487.031 132.734V132.115C487.031 126.546 482.816 123.491 475.12 123.491C467.385 123.491 463.169 126.546 463.169 132.115V132.734Z" fill="#F7931E"/>
<path d="M500.06 145.961V118.889H518.083C525.005 118.889 528.834 121.519 528.834 125.889V126.353C528.834 129.215 527.055 131.303 523.845 132.309C527.326 133.314 529.221 135.441 529.221 138.381V138.845C529.221 143.253 525.585 145.961 518.469 145.961H500.06ZM505.436 141.436H518.547C521.873 141.436 523.574 140.198 523.574 138.11V137.839C523.574 135.828 521.873 134.59 518.547 134.59H505.436V141.436ZM505.436 130.259H518.16C521.486 130.259 523.188 129.021 523.188 126.972V126.701C523.188 124.651 521.486 123.414 518.16 123.414H505.436V130.259Z" fill="#F7931E"/>
<path d="M536.468 118.889H541.921V145.961H536.468V118.889Z" fill="#F7931E"/>
<path d="M551.311 145.961V118.889H556.764V128.635L556.725 139.463H556.764L576.024 118.889H581.98V145.961H576.527V136.176L576.565 125.347H576.527L557.267 145.961H551.311ZM556.841 113.088V108.524L566.665 112.276L576.411 108.447V112.933L566.626 116.8L556.841 113.088Z" fill="#F7931E"/>
</svg>
